{
	"asset":{
		"generator":"Khronos glTF Blender I/O v3.5.30",
		"version":"2.0"
	},
	"scene":0,
	"scenes":[
		{
			"name":"Scene",
			"nodes":[
				0
			]
		}
	],
	"nodes":[
		{
			"mesh":0,
			"name":"ImageToStl.com_car-design-astreo-type3"
		}
	],
	"meshes":[
		{
			"name":"ImageToStl.com_car-design-astreo-type3",
			"primitives":[
				{
					"attributes":{
						"POSITION":0,
						"NORMAL":1
					},
					"indices":2
				}
			]
		}
	],
	"accessors":[
		{
			"bufferView":0,
			"componentType":5126,
			"count":2545371,
			"max":[
				2.4094715118408203,
				1.9444074630737305,
				1.2433242797851562
			],
			"min":[
				-2.153434991836548,
				-0.009905189275741577,
				-1.3486309051513672
			],
			"type":"VEC3"
		},
		{
			"bufferView":1,
			"componentType":5126,
			"count":2545371,
			"type":"VEC3"
		},
		{
			"bufferView":2,
			"componentType":5125,
			"count":2890707,
			"type":"SCALAR"
		}
	],
	"bufferViews":[
		{
			"buffer":0,
			"byteLength":30544452,
			"byteOffset":0,
			"target":34962
		},
		{
			"buffer":0,
			"byteLength":30544452,
			"byteOffset":30544452,
			"target":34962
		},
		{
			"buffer":0,
			"byteLength":11562828,
			"byteOffset":61088904,
			"target":34963
		}
	],
	"buffers":[
		{
			"byteLength":72651732,
			"uri":"2.bin"
		}
	]
}
