{
	"asset":{
		"generator":"Khronos glTF Blender I/O v3.5.30",
		"version":"2.0"
	},
	"extensionsUsed":[
		"KHR_materials_clearcoat",
		"KHR_materials_specular",
		"KHR_materials_ior",
		"KHR_materials_emissive_strength"
	],
	"scene":0,
	"scenes":[
		{
			"name":"Scene",
			"nodes":[
				0,
				1,
				2,
				3,
				4,
				5,
				6,
				7,
				8,
				9,
				10,
				11,
				12,
				13,
				14,
				15,
				16
			]
		}
	],
	"nodes":[
		{
			"mesh":0,
			"name":"Cube",
			"scale":[
				1.4566177129745483,
				1.4566177129745483,
				1.4566177129745483
			],
			"translation":[
				-0.15937592089176178,
				0.6350003480911255,
				1.7178122997283936
			]
		},
		{
			"name":"Empty",
			"rotation":[
				0.5,
				0.5,
				-0.5,
				0.5
			],
			"scale":[
				1.100088357925415,
				1.100088357925415,
				1.100088357925415
			],
			"translation":[
				0,
				-0.41697290539741516,
				-5.53227424621582
			]
		},
		{
			"name":"Empty.001",
			"rotation":[
				0.5,
				0.5,
				-0.5,
				0.5
			]
		},
		{
			"name":"Empty.002",
			"rotation":[
				0.7071068286895752,
				0,
				0,
				0.7071068286895752
			],
			"translation":[
				-1.9907739162445068,
				0,
				1.7484123706817627
			]
		},
		{
			"name":"Empty.003",
			"rotation":[
				0,
				0.7071073651313782,
				0,
				0.7071061730384827
			],
			"translation":[
				-1.5585472583770752,
				0,
				-0.009829062968492508
			]
		},
		{
			"name":"Empty.004",
			"rotation":[
				0,
				-0.7071068286895752,
				0.7071068286895752,
				3.4560699191388267e-07
			],
			"translation":[
				0.8603856563568115,
				1.4474711418151855,
				1.7484123706817627
			]
		},
		{
			"mesh":1,
			"name":"Cube.001",
			"scale":[
				1.4566177129745483,
				1.4566177129745483,
				1.4566177129745483
			],
			"translation":[
				-0.15937592089176178,
				0.6350003480911255,
				1.7178122997283936
			]
		},
		{
			"name":"Circle.003",
			"rotation":[
				-0.05724480375647545,
				-0.05724480375647545,
				-0.7047858238220215,
				0.7047858238220215
			],
			"scale":[
				0.04251265525817871,
				0.055949024856090546,
				0.04251265525817871
			],
			"translation":[
				0.1904032975435257,
				0.13385099172592163,
				0.027696536853909492
			]
		},
		{
			"name":"Circle.005",
			"rotation":[
				-0.40113160014152527,
				-0.40113160014152527,
				-0.5823172330856323,
				0.5823173522949219
			],
			"scale":[
				0.04251265898346901,
				0.055949024856090546,
				0.04251265898346901
			],
			"translation":[
				0.1904032975435257,
				0.13385099172592163,
				0.027696536853909492
			]
		},
		{
			"name":"Circle.006",
			"rotation":[
				-0.6381114721298218,
				-0.6381115317344666,
				-0.30465346574783325,
				0.30465349555015564
			],
			"scale":[
				0.04251265525817871,
				0.055949024856090546,
				0.04251265525817871
			],
			"translation":[
				0.1904032975435257,
				0.13385099172592163,
				0.027696536853909492
			]
		},
		{
			"name":"Circle.007",
			"rotation":[
				0.7050262093544006,
				0.7050260305404663,
				-0.05420457571744919,
				0.054204557090997696
			],
			"scale":[
				0.04251265525817871,
				0.055949024856090546,
				0.04251265525817871
			],
			"translation":[
				0.1904032975435257,
				0.13385099172592163,
				0.027696536853909492
			]
		},
		{
			"name":"Circle.008",
			"rotation":[
				0.5840420126914978,
				0.584041953086853,
				-0.3986164629459381,
				0.3986164331436157
			],
			"scale":[
				0.04251265525817871,
				0.055949024856090546,
				0.04251265525817871
			],
			"translation":[
				0.1904032975435257,
				0.13385099172592163,
				0.027696536853909492
			]
		},
		{
			"name":"Circle.009",
			"rotation":[
				0.30740272998809814,
				0.307402640581131,
				-0.6367917060852051,
				0.6367916464805603
			],
			"scale":[
				0.04251265525817871,
				0.055949024856090546,
				0.04251265525817871
			],
			"translation":[
				0.1904032975435257,
				0.13385099172592163,
				0.027696536853909492
			]
		},
		{
			"mesh":2,
			"name":"Circle.004",
			"rotation":[
				0,
				-0.9716358184814453,
				0.23648259043693542,
				1.5829958499580243e-07
			],
			"scale":[
				2.2819604873657227,
				1.8001134395599365,
				1.8001134395599365
			],
			"translation":[
				-0.8161928057670593,
				0.12397412955760956,
				-1.3449920415878296
			]
		},
		{
			"mesh":3,
			"name":"Circle.001",
			"rotation":[
				0,
				-0.9716358184814453,
				0.23648259043693542,
				1.5829958499580243e-07
			],
			"scale":[
				2.2819604873657227,
				1.8001134395599365,
				1.8001134395599365
			],
			"translation":[
				-0.8161928057670593,
				0.12397412955760956,
				1.0826411247253418
			]
		},
		{
			"mesh":4,
			"name":"Circle.002",
			"rotation":[
				0.23648259043693542,
				0,
				0,
				0.9716358184814453
			],
			"scale":[
				2.2819604873657227,
				1.8001134395599365,
				1.8001134395599365
			],
			"translation":[
				0.5028568506240845,
				0.12397412955760956,
				1.0826411247253418
			]
		},
		{
			"mesh":5,
			"name":"Circle.010",
			"rotation":[
				0.23648259043693542,
				0,
				0,
				0.9716358184814453
			],
			"scale":[
				2.2819604873657227,
				1.8001134395599365,
				1.8001134395599365
			],
			"translation":[
				0.5028564929962158,
				0.12397412955760956,
				-1.3449920415878296
			]
		}
	],
	"materials":[
		{
			"doubleSided":true,
			"extensions":{
				"KHR_materials_clearcoat":{
					"clearcoatFactor":0.5818182229995728,
					"clearcoatRoughnessFactor":0.2436363697052002
				},
				"KHR_materials_specular":{
					"specularColorFactor":[
						2.371357614441398,
						2.371357614441398,
						2.371357614441398
					]
				},
				"KHR_materials_ior":{
					"ior":1.4500000476837158
				}
			},
			"name":"Material",
			"pbrMetallicRoughness":{
				"baseColorFactor":[
					0.05733693018555641,
					0.05733693018555641,
					0.05733693018555641,
					1
				],
				"roughnessFactor":0.5727272629737854
			}
		},
		{
			"doubleSided":true,
			"name":"glass",
			"pbrMetallicRoughness":{
				"metallicFactor":0,
				"roughnessFactor":0.5
			}
		},
		{
			"doubleSided":true,
			"name":"rlights",
			"pbrMetallicRoughness":{
				"baseColorFactor":[
					0.800000011920929,
					0.800000011920929,
					0.800000011920929,
					1
				],
				"metallicFactor":0,
				"roughnessFactor":0.5
			}
		},
		{
			"doubleSided":true,
			"name":"logo",
			"pbrMetallicRoughness":{}
		},
		{
			"doubleSided":true,
			"name":"Material.003",
			"pbrMetallicRoughness":{
				"baseColorFactor":[
					0.800000011920929,
					0.800000011920929,
					0.800000011920929,
					1
				],
				"metallicFactor":0,
				"roughnessFactor":0.5
			}
		},
		{
			"doubleSided":true,
			"emissiveFactor":[
				1,
				1,
				1
			],
			"extensions":{
				"KHR_materials_emissive_strength":{
					"emissiveStrength":15
				}
			},
			"name":"flights",
			"pbrMetallicRoughness":{
				"baseColorFactor":[
					0,
					0,
					0,
					1
				]
			}
		},
		{
			"doubleSided":true,
			"emissiveFactor":[
				1,
				1,
				1
			],
			"extensions":{
				"KHR_materials_emissive_strength":{
					"emissiveStrength":15
				}
			},
			"name":"flights.001",
			"pbrMetallicRoughness":{
				"baseColorFactor":[
					0,
					0,
					0,
					1
				]
			}
		},
		{
			"doubleSided":true,
			"name":"Material.004",
			"pbrMetallicRoughness":{
				"baseColorFactor":[
					0.800000011920929,
					0.800000011920929,
					0.800000011920929,
					1
				],
				"metallicFactor":0,
				"roughnessFactor":0.5
			}
		},
		{
			"doubleSided":true,
			"name":"Material.002",
			"pbrMetallicRoughness":{
				"baseColorFactor":[
					0.800000011920929,
					0.800000011920929,
					0.800000011920929,
					1
				],
				"metallicFactor":0,
				"roughnessFactor":0.5
			}
		}
	],
	"meshes":[
		{
			"name":"Cube",
			"primitives":[
				{
					"attributes":{
						"POSITION":0,
						"TEXCOORD_0":1,
						"NORMAL":2
					},
					"indices":3,
					"material":0
				},
				{
					"attributes":{
						"POSITION":4,
						"TEXCOORD_0":5,
						"NORMAL":6
					},
					"indices":7,
					"material":1
				},
				{
					"attributes":{
						"POSITION":8,
						"TEXCOORD_0":9,
						"NORMAL":10
					},
					"indices":11,
					"material":2
				},
				{
					"attributes":{
						"POSITION":12,
						"TEXCOORD_0":13,
						"NORMAL":14
					},
					"indices":15,
					"material":3
				},
				{
					"attributes":{
						"POSITION":16,
						"TEXCOORD_0":17,
						"NORMAL":18
					},
					"indices":19,
					"material":4
				},
				{
					"attributes":{
						"POSITION":20,
						"TEXCOORD_0":21,
						"NORMAL":22
					},
					"indices":23,
					"material":5
				},
				{
					"attributes":{
						"POSITION":24,
						"TEXCOORD_0":25,
						"NORMAL":26
					},
					"indices":27,
					"material":6
				}
			]
		},
		{
			"name":"Cube.001",
			"primitives":[
				{
					"attributes":{
						"POSITION":28,
						"TEXCOORD_0":29,
						"NORMAL":30
					},
					"indices":31,
					"material":0
				},
				{
					"attributes":{
						"POSITION":32,
						"TEXCOORD_0":33,
						"NORMAL":34
					},
					"indices":35,
					"material":5
				}
			]
		},
		{
			"name":"Circle.012",
			"primitives":[
				{
					"attributes":{
						"POSITION":36,
						"TEXCOORD_0":37,
						"NORMAL":38
					},
					"indices":39,
					"material":7
				},
				{
					"attributes":{
						"POSITION":40,
						"TEXCOORD_0":41,
						"NORMAL":42
					},
					"indices":43,
					"material":8
				}
			]
		},
		{
			"name":"Circle.002",
			"primitives":[
				{
					"attributes":{
						"POSITION":44,
						"TEXCOORD_0":45,
						"NORMAL":46
					},
					"indices":39,
					"material":7
				},
				{
					"attributes":{
						"POSITION":47,
						"TEXCOORD_0":48,
						"NORMAL":49
					},
					"indices":43,
					"material":8
				}
			]
		},
		{
			"name":"Circle.004",
			"primitives":[
				{
					"attributes":{
						"POSITION":50,
						"TEXCOORD_0":51,
						"NORMAL":52
					},
					"indices":39,
					"material":7
				},
				{
					"attributes":{
						"POSITION":53,
						"TEXCOORD_0":54,
						"NORMAL":55
					},
					"indices":43,
					"material":8
				}
			]
		},
		{
			"name":"Circle.010",
			"primitives":[
				{
					"attributes":{
						"POSITION":56,
						"TEXCOORD_0":57,
						"NORMAL":58
					},
					"indices":39,
					"material":7
				},
				{
					"attributes":{
						"POSITION":59,
						"TEXCOORD_0":60,
						"NORMAL":61
					},
					"indices":43,
					"material":8
				}
			]
		}
	],
	"accessors":[
		{
			"bufferView":0,
			"componentType":5126,
			"count":7205,
			"max":[
				0.5859429240226746,
				0.4592262804508209,
				0.00979657843708992
			],
			"min":[
				-0.5859429240226746,
				-0.3969171345233917,
				-2.638991594314575
			],
			"type":"VEC3"
		},
		{
			"bufferView":1,
			"componentType":5126,
			"count":7205,
			"type":"VEC2"
		},
		{
			"bufferView":2,
			"componentType":5126,
			"count":7205,
			"type":"VEC3"
		},
		{
			"bufferView":3,
			"componentType":5123,
			"count":26517,
			"type":"SCALAR"
		},
		{
			"bufferView":4,
			"componentType":5126,
			"count":394,
			"max":[
				0.44024723768234253,
				0.40361976623535156,
				-0.7358649373054504
			],
			"min":[
				-0.44024723768234253,
				0.14805366098880768,
				-2.598377227783203
			],
			"type":"VEC3"
		},
		{
			"bufferView":5,
			"componentType":5126,
			"count":394,
			"type":"VEC2"
		},
		{
			"bufferView":6,
			"componentType":5126,
			"count":394,
			"type":"VEC3"
		},
		{
			"bufferView":7,
			"componentType":5123,
			"count":1344,
			"type":"SCALAR"
		},
		{
			"bufferView":8,
			"componentType":5126,
			"count":299,
			"max":[
				0.4675792455673218,
				0.3505978584289551,
				-2.4189646244049072
			],
			"min":[
				-0.4675792455673218,
				-0.14635738730430603,
				-2.612825632095337
			],
			"type":"VEC3"
		},
		{
			"bufferView":9,
			"componentType":5126,
			"count":299,
			"type":"VEC2"
		},
		{
			"bufferView":10,
			"componentType":5126,
			"count":299,
			"type":"VEC3"
		},
		{
			"bufferView":11,
			"componentType":5123,
			"count":1062,
			"type":"SCALAR"
		},
		{
			"bufferView":12,
			"componentType":5126,
			"count":47,
			"max":[
				0.02885523810982704,
				0.24513067305088043,
				0.020557407289743423
			],
			"min":[
				-0.02885523810982704,
				-0.12148208171129227,
				-2.6392555236816406
			],
			"type":"VEC3"
		},
		{
			"bufferView":13,
			"componentType":5126,
			"count":47,
			"type":"VEC2"
		},
		{
			"bufferView":14,
			"componentType":5126,
			"count":47,
			"type":"VEC3"
		},
		{
			"bufferView":15,
			"componentType":5123,
			"count":102,
			"type":"SCALAR"
		},
		{
			"bufferView":16,
			"componentType":5126,
			"count":555,
			"max":[
				0.5565317869186401,
				0.10815911740064621,
				-0.015341885387897491
			],
			"min":[
				-0.5565317869186401,
				-0.39691945910453796,
				-2.3897864818573
			],
			"type":"VEC3"
		},
		{
			"bufferView":17,
			"componentType":5126,
			"count":555,
			"type":"VEC2"
		},
		{
			"bufferView":18,
			"componentType":5126,
			"count":555,
			"type":"VEC3"
		},
		{
			"bufferView":19,
			"componentType":5123,
			"count":2028,
			"type":"SCALAR"
		},
		{
			"bufferView":20,
			"componentType":5126,
			"count":32,
			"max":[
				0.5859429240226746,
				0.19846609234809875,
				-0.8799699544906616
			],
			"min":[
				-0.5859429240226746,
				0.179339200258255,
				-1.014518141746521
			],
			"type":"VEC3"
		},
		{
			"bufferView":21,
			"componentType":5126,
			"count":32,
			"type":"VEC2"
		},
		{
			"bufferView":22,
			"componentType":5126,
			"count":32,
			"type":"VEC3"
		},
		{
			"bufferView":23,
			"componentType":5123,
			"count":108,
			"type":"SCALAR"
		},
		{
			"bufferView":24,
			"componentType":5126,
			"count":114,
			"max":[
				0.4431382417678833,
				0.08648917078971863,
				-0.021618403494358063
			],
			"min":[
				-0.4431382417678833,
				-0.2642693519592285,
				-0.21851296722888947
			],
			"type":"VEC3"
		},
		{
			"bufferView":25,
			"componentType":5126,
			"count":114,
			"type":"VEC2"
		},
		{
			"bufferView":26,
			"componentType":5126,
			"count":114,
			"type":"VEC3"
		},
		{
			"bufferView":27,
			"componentType":5123,
			"count":384,
			"type":"SCALAR"
		},
		{
			"bufferView":28,
			"componentType":5126,
			"count":64,
			"max":[
				0.41423219442367554,
				-0.08292409032583237,
				-0.08391153067350388
			],
			"min":[
				0.36057695746421814,
				-0.13657940924167633,
				-0.1345171183347702
			],
			"type":"VEC3"
		},
		{
			"bufferView":29,
			"componentType":5126,
			"count":64,
			"type":"VEC2"
		},
		{
			"bufferView":30,
			"componentType":5126,
			"count":64,
			"type":"VEC3"
		},
		{
			"bufferView":31,
			"componentType":5123,
			"count":276,
			"type":"SCALAR"
		},
		{
			"bufferView":32,
			"componentType":5126,
			"count":189,
			"max":[
				0.44244563579559326,
				0.08161099255084991,
				-0.051147472113370895
			],
			"min":[
				0.22230038046836853,
				-0.2499966323375702,
				-0.22852037847042084
			],
			"type":"VEC3"
		},
		{
			"bufferView":33,
			"componentType":5126,
			"count":189,
			"type":"VEC2"
		},
		{
			"bufferView":34,
			"componentType":5126,
			"count":189,
			"type":"VEC3"
		},
		{
			"bufferView":35,
			"componentType":5123,
			"count":567,
			"type":"SCALAR"
		},
		{
			"bufferView":36,
			"componentType":5126,
			"count":2544,
			"max":[
				0.05860404297709465,
				0.1945686638355255,
				0.19456884264945984
			],
			"min":[
				-0.04993947595357895,
				-0.19456854462623596,
				-0.19456835091114044
			],
			"type":"VEC3"
		},
		{
			"bufferView":37,
			"componentType":5126,
			"count":2544,
			"type":"VEC2"
		},
		{
			"bufferView":38,
			"componentType":5126,
			"count":2544,
			"type":"VEC3"
		},
		{
			"bufferView":39,
			"componentType":5123,
			"count":6084,
			"type":"SCALAR"
		},
		{
			"bufferView":40,
			"componentType":5126,
			"count":1419,
			"max":[
				0.04788164049386978,
				0.10621229559183121,
				0.10621247440576553
			],
			"min":[
				-0.0037791747599840164,
				-0.10621214658021927,
				-0.10621196776628494
			],
			"type":"VEC3"
		},
		{
			"bufferView":41,
			"componentType":5126,
			"count":1419,
			"type":"VEC2"
		},
		{
			"bufferView":42,
			"componentType":5126,
			"count":1419,
			"type":"VEC3"
		},
		{
			"bufferView":43,
			"componentType":5123,
			"count":3447,
			"type":"SCALAR"
		},
		{
			"bufferView":44,
			"componentType":5126,
			"count":2544,
			"max":[
				0.05860404297709465,
				0.1945686638355255,
				0.19456884264945984
			],
			"min":[
				-0.04993947595357895,
				-0.19456854462623596,
				-0.19456835091114044
			],
			"type":"VEC3"
		},
		{
			"bufferView":45,
			"componentType":5126,
			"count":2544,
			"type":"VEC2"
		},
		{
			"bufferView":46,
			"componentType":5126,
			"count":2544,
			"type":"VEC3"
		},
		{
			"bufferView":47,
			"componentType":5126,
			"count":1419,
			"max":[
				0.04788164049386978,
				0.10621229559183121,
				0.10621247440576553
			],
			"min":[
				-0.0037791747599840164,
				-0.10621214658021927,
				-0.10621196776628494
			],
			"type":"VEC3"
		},
		{
			"bufferView":48,
			"componentType":5126,
			"count":1419,
			"type":"VEC2"
		},
		{
			"bufferView":49,
			"componentType":5126,
			"count":1419,
			"type":"VEC3"
		},
		{
			"bufferView":50,
			"componentType":5126,
			"count":2544,
			"max":[
				0.05860404297709465,
				0.1945686638355255,
				0.19456884264945984
			],
			"min":[
				-0.04993947595357895,
				-0.19456854462623596,
				-0.19456835091114044
			],
			"type":"VEC3"
		},
		{
			"bufferView":51,
			"componentType":5126,
			"count":2544,
			"type":"VEC2"
		},
		{
			"bufferView":52,
			"componentType":5126,
			"count":2544,
			"type":"VEC3"
		},
		{
			"bufferView":53,
			"componentType":5126,
			"count":1419,
			"max":[
				0.04788164049386978,
				0.10621229559183121,
				0.10621247440576553
			],
			"min":[
				-0.0037791747599840164,
				-0.10621214658021927,
				-0.10621196776628494
			],
			"type":"VEC3"
		},
		{
			"bufferView":54,
			"componentType":5126,
			"count":1419,
			"type":"VEC2"
		},
		{
			"bufferView":55,
			"componentType":5126,
			"count":1419,
			"type":"VEC3"
		},
		{
			"bufferView":56,
			"componentType":5126,
			"count":2544,
			"max":[
				0.05860404297709465,
				0.1945686638355255,
				0.19456884264945984
			],
			"min":[
				-0.04993947595357895,
				-0.19456854462623596,
				-0.19456835091114044
			],
			"type":"VEC3"
		},
		{
			"bufferView":57,
			"componentType":5126,
			"count":2544,
			"type":"VEC2"
		},
		{
			"bufferView":58,
			"componentType":5126,
			"count":2544,
			"type":"VEC3"
		},
		{
			"bufferView":59,
			"componentType":5126,
			"count":1419,
			"max":[
				0.04788164049386978,
				0.10621229559183121,
				0.10621247440576553
			],
			"min":[
				-0.0037791747599840164,
				-0.10621214658021927,
				-0.10621196776628494
			],
			"type":"VEC3"
		},
		{
			"bufferView":60,
			"componentType":5126,
			"count":1419,
			"type":"VEC2"
		},
		{
			"bufferView":61,
			"componentType":5126,
			"count":1419,
			"type":"VEC3"
		}
	],
	"bufferViews":[
		{
			"buffer":0,
			"byteLength":86460,
			"byteOffset":0,
			"target":34962
		},
		{
			"buffer":0,
			"byteLength":57640,
			"byteOffset":86460,
			"target":34962
		},
		{
			"buffer":0,
			"byteLength":86460,
			"byteOffset":144100,
			"target":34962
		},
		{
			"buffer":0,
			"byteLength":53034,
			"byteOffset":230560,
			"target":34963
		},
		{
			"buffer":0,
			"byteLength":4728,
			"byteOffset":283596,
			"target":34962
		},
		{
			"buffer":0,
			"byteLength":3152,
			"byteOffset":288324,
			"target":34962
		},
		{
			"buffer":0,
			"byteLength":4728,
			"byteOffset":291476,
			"target":34962
		},
		{
			"buffer":0,
			"byteLength":2688,
			"byteOffset":296204,
			"target":34963
		},
		{
			"buffer":0,
			"byteLength":3588,
			"byteOffset":298892,
			"target":34962
		},
		{
			"buffer":0,
			"byteLength":2392,
			"byteOffset":302480,
			"target":34962
		},
		{
			"buffer":0,
			"byteLength":3588,
			"byteOffset":304872,
			"target":34962
		},
		{
			"buffer":0,
			"byteLength":2124,
			"byteOffset":308460,
			"target":34963
		},
		{
			"buffer":0,
			"byteLength":564,
			"byteOffset":310584,
			"target":34962
		},
		{
			"buffer":0,
			"byteLength":376,
			"byteOffset":311148,
			"target":34962
		},
		{
			"buffer":0,
			"byteLength":564,
			"byteOffset":311524,
			"target":34962
		},
		{
			"buffer":0,
			"byteLength":204,
			"byteOffset":312088,
			"target":34963
		},
		{
			"buffer":0,
			"byteLength":6660,
			"byteOffset":312292,
			"target":34962
		},
		{
			"buffer":0,
			"byteLength":4440,
			"byteOffset":318952,
			"target":34962
		},
		{
			"buffer":0,
			"byteLength":6660,
			"byteOffset":323392,
			"target":34962
		},
		{
			"buffer":0,
			"byteLength":4056,
			"byteOffset":330052,
			"target":34963
		},
		{
			"buffer":0,
			"byteLength":384,
			"byteOffset":334108,
			"target":34962
		},
		{
			"buffer":0,
			"byteLength":256,
			"byteOffset":334492,
			"target":34962
		},
		{
			"buffer":0,
			"byteLength":384,
			"byteOffset":334748,
			"target":34962
		},
		{
			"buffer":0,
			"byteLength":216,
			"byteOffset":335132,
			"target":34963
		},
		{
			"buffer":0,
			"byteLength":1368,
			"byteOffset":335348,
			"target":34962
		},
		{
			"buffer":0,
			"byteLength":912,
			"byteOffset":336716,
			"target":34962
		},
		{
			"buffer":0,
			"byteLength":1368,
			"byteOffset":337628,
			"target":34962
		},
		{
			"buffer":0,
			"byteLength":768,
			"byteOffset":338996,
			"target":34963
		},
		{
			"buffer":0,
			"byteLength":768,
			"byteOffset":339764,
			"target":34962
		},
		{
			"buffer":0,
			"byteLength":512,
			"byteOffset":340532,
			"target":34962
		},
		{
			"buffer":0,
			"byteLength":768,
			"byteOffset":341044,
			"target":34962
		},
		{
			"buffer":0,
			"byteLength":552,
			"byteOffset":341812,
			"target":34963
		},
		{
			"buffer":0,
			"byteLength":2268,
			"byteOffset":342364,
			"target":34962
		},
		{
			"buffer":0,
			"byteLength":1512,
			"byteOffset":344632,
			"target":34962
		},
		{
			"buffer":0,
			"byteLength":2268,
			"byteOffset":346144,
			"target":34962
		},
		{
			"buffer":0,
			"byteLength":1134,
			"byteOffset":348412,
			"target":34963
		},
		{
			"buffer":0,
			"byteLength":30528,
			"byteOffset":349548,
			"target":34962
		},
		{
			"buffer":0,
			"byteLength":20352,
			"byteOffset":380076,
			"target":34962
		},
		{
			"buffer":0,
			"byteLength":30528,
			"byteOffset":400428,
			"target":34962
		},
		{
			"buffer":0,
			"byteLength":12168,
			"byteOffset":430956,
			"target":34963
		},
		{
			"buffer":0,
			"byteLength":17028,
			"byteOffset":443124,
			"target":34962
		},
		{
			"buffer":0,
			"byteLength":11352,
			"byteOffset":460152,
			"target":34962
		},
		{
			"buffer":0,
			"byteLength":17028,
			"byteOffset":471504,
			"target":34962
		},
		{
			"buffer":0,
			"byteLength":6894,
			"byteOffset":488532,
			"target":34963
		},
		{
			"buffer":0,
			"byteLength":30528,
			"byteOffset":495428,
			"target":34962
		},
		{
			"buffer":0,
			"byteLength":20352,
			"byteOffset":525956,
			"target":34962
		},
		{
			"buffer":0,
			"byteLength":30528,
			"byteOffset":546308,
			"target":34962
		},
		{
			"buffer":0,
			"byteLength":17028,
			"byteOffset":576836,
			"target":34962
		},
		{
			"buffer":0,
			"byteLength":11352,
			"byteOffset":593864,
			"target":34962
		},
		{
			"buffer":0,
			"byteLength":17028,
			"byteOffset":605216,
			"target":34962
		},
		{
			"buffer":0,
			"byteLength":30528,
			"byteOffset":622244,
			"target":34962
		},
		{
			"buffer":0,
			"byteLength":20352,
			"byteOffset":652772,
			"target":34962
		},
		{
			"buffer":0,
			"byteLength":30528,
			"byteOffset":673124,
			"target":34962
		},
		{
			"buffer":0,
			"byteLength":17028,
			"byteOffset":703652,
			"target":34962
		},
		{
			"buffer":0,
			"byteLength":11352,
			"byteOffset":720680,
			"target":34962
		},
		{
			"buffer":0,
			"byteLength":17028,
			"byteOffset":732032,
			"target":34962
		},
		{
			"buffer":0,
			"byteLength":30528,
			"byteOffset":749060,
			"target":34962
		},
		{
			"buffer":0,
			"byteLength":20352,
			"byteOffset":779588,
			"target":34962
		},
		{
			"buffer":0,
			"byteLength":30528,
			"byteOffset":799940,
			"target":34962
		},
		{
			"buffer":0,
			"byteLength":17028,
			"byteOffset":830468,
			"target":34962
		},
		{
			"buffer":0,
			"byteLength":11352,
			"byteOffset":847496,
			"target":34962
		},
		{
			"buffer":0,
			"byteLength":17028,
			"byteOffset":858848,
			"target":34962
		}
	],
	"buffers":[
		{
			"byteLength":875876,
			"uri":"6.bin"
		}
	]
}
